<svg width="50" height="50" viewBox="0 0 50 50" fill="none" xmlns="http://www.w3.org/2000/svg">
<g filter="url(#filter0_d_4627_385802)">
<rect x="5" y="1" width="40" height="40" rx="20" fill="white" shape-rendering="crispEdges"/>
<path d="M32.3261 21.5062C32.5296 21.3318 32.6313 21.2446 32.6686 21.1409C32.7013 21.0498 32.7013 20.9502 32.6686 20.8591C32.6313 20.7554 32.5296 20.6682 32.3261 20.4938L25.2672 14.4433C24.917 14.1431 24.7419 13.9931 24.5937 13.9894C24.4648 13.9862 24.3418 14.0428 24.2603 14.1427C24.1667 14.2576 24.1667 14.4883 24.1667 14.9495V18.5289C22.3878 18.8401 20.7597 19.7415 19.5498 21.0949C18.2307 22.5704 17.501 24.48 17.5 26.4591V26.9691C18.3745 25.9157 19.4663 25.0638 20.7006 24.4716C21.7889 23.9495 22.9653 23.6403 24.1667 23.5588V27.0505C24.1667 27.5117 24.1667 27.7424 24.2603 27.8573C24.3418 27.9572 24.4648 28.0138 24.5937 28.0106C24.7419 28.0069 24.917 27.8569 25.2672 27.5567L32.3261 21.5062Z" stroke="#98A2B3" stroke-width="1.66667" stroke-linecap="round" stroke-linejoin="round"/>
<rect x="5" y="1" width="40" height="40" rx="20" stroke="#D0D5DD" stroke-linecap="round" stroke-linejoin="round" stroke-dasharray="1 3" shape-rendering="crispEdges"/>
</g>
<defs>
<filter id="filter0_d_4627_385802" x="0.5" y="0.5" width="49" height="49" filterUnits="userSpaceOnUse" color-interpolation-filters="sRGB">
<feFlood flood-opacity="0" result="BackgroundImageFix"/>
<feColorMatrix in="SourceAlpha" type="matrix" values="0 0 0 0 0 0 0 0 0 0 0 0 0 0 0 0 0 0 127 0" result="hardAlpha"/>
<feOffset dy="4"/>
<feGaussianBlur stdDeviation="2"/>
<feComposite in2="hardAlpha" operator="out"/>
<feColorMatrix type="matrix" values="0 0 0 0 0 0 0 0 0 0 0 0 0 0 0 0 0 0 0.25 0"/>
<feBlend mode="normal" in2="BackgroundImageFix" result="effect1_dropShadow_4627_385802"/>
<feBlend mode="normal" in="SourceGraphic" in2="effect1_dropShadow_4627_385802" result="shape"/>
</filter>
</defs>
</svg>
