<svg width="25" height="24" viewBox="0 0 25 24" fill="none" xmlns="http://www.w3.org/2000/svg">
<g clip-path="url(#clip0_4627_392617)">
<path fill-rule="evenodd" clip-rule="evenodd" d="M12.5 0C19.1276 0 24.5 5.3808 24.5 12.0204C24.5 17.3304 21.062 21.8364 16.2932 23.4252C15.6932 23.5356 15.4748 23.1648 15.4748 22.8456C15.4748 22.5612 15.4844 21.804 15.4904 20.802C18.8288 21.528 19.5332 19.1904 19.5332 19.1904C20.078 17.8008 20.8652 17.4312 20.8652 17.4312C21.9548 16.6872 20.7824 16.7016 20.7824 16.7016C19.5788 16.7856 18.9452 17.94 18.9452 17.94C17.8748 19.776 16.136 19.2456 15.4532 18.9384C15.3428 18.162 15.0332 17.6328 14.69 17.3328C17.354 17.0292 20.156 15.9972 20.156 11.3916C20.156 10.08 19.688 9.006 18.9212 8.166C19.0448 7.8624 19.4564 6.6396 18.8036 4.986C18.8036 4.986 17.7956 4.662 15.5036 6.2172C14.5247 5.95022 13.5147 5.81423 12.5 5.8128C11.48 5.8176 10.454 5.9508 9.4952 6.2172C7.2044 4.662 6.1988 4.9848 6.1988 4.9848C5.5436 6.6396 5.9564 7.8624 6.0788 8.166C5.3108 9.006 4.8452 10.08 4.8452 11.3916C4.8452 16.0092 7.652 17.0256 10.3244 17.3232C9.8936 17.694 9.5108 18.4272 9.5108 19.5492C9.5108 21.1548 9.5252 22.452 9.5252 22.8456C9.5252 23.1672 9.3092 23.5416 8.6996 23.424C6.31005 22.6225 4.23279 21.0904 2.76142 19.0441C1.29005 16.9977 0.498976 14.5408 0.5 12.0204C0.5 5.3808 5.8736 0 12.5 0Z" fill="black"/>
</g>
<defs>
<clipPath id="clip0_4627_392617">
<rect width="24" height="24" fill="white" transform="matrix(-1 0 0 1 24.5 0)"/>
</clipPath>
</defs>
</svg>
